<mxfile host="drawio-plugin" modified="2021-11-22T14:37:18.127Z" agent="5.0 (X11; Linux x86_64) AppleWebKit/537.36 (KHTML, like Gecko) Chrome/89.0.4389.114 Safari/537.36" etag="C9ZpgRWxf7Yh9IwrGiKF" version="14.7.4" type="embed"><diagram id="Jyk7rCg8KGbtXq0Xk9HY" name="Page-1"><mxGraphModel dx="1479" dy="843" grid="1" gridSize="10" guides="1" tooltips="1" connect="1" arrows="1" fold="1" page="1" pageScale="1" pageWidth="650" pageHeight="730" background="none" math="0" shadow="0"><root><mxCell id="0"/><mxCell id="iMye_LXfVpJSYTO0qSQB-12" value="background" style="" parent="0"/><mxCell id="iMye_LXfVpJSYTO0qSQB-56" value="" style="rounded=0;whiteSpace=wrap;html=1;labelBackgroundColor=none;fontSize=12;noLabel=1;fontColor=none;fillColor=none;strokeColor=#FFFFFF;" parent="iMye_LXfVpJSYTO0qSQB-12" vertex="1"><mxGeometry x="-650" width="650" height="730" as="geometry"/></mxCell><mxCell id="iMye_LXfVpJSYTO0qSQB-13" value="" style="rounded=0;whiteSpace=wrap;html=1;fillColor=#f5f5f5;strokeColor=#666666;fontColor=#333333;fontFamily=Roboto;fontSource=https%3A%2F%2Ffonts.googleapis.com%2Fcss%3Ffamily%3DRoboto;fontSize=12;" parent="iMye_LXfVpJSYTO0qSQB-12" vertex="1"><mxGeometry x="-650" y="250" width="650" height="480" as="geometry"/></mxCell><mxCell id="iMye_LXfVpJSYTO0qSQB-51" value="" style="rounded=0;whiteSpace=wrap;html=1;labelBackgroundColor=#E6E6E6;fontSize=12;strokeColor=#666666;fontColor=#333333;fillColor=#f5f5f5;fontFamily=Roboto;fontSource=https%3A%2F%2Ffonts.googleapis.com%2Fcss%3Ffamily%3DRoboto;" parent="iMye_LXfVpJSYTO0qSQB-12" vertex="1"><mxGeometry x="-650" y="60" width="490" height="180" as="geometry"/></mxCell><mxCell id="IUe7kWGl7sLAVE5NO57p-2" style="edgeStyle=orthogonalEdgeStyle;rounded=0;orthogonalLoop=1;jettySize=auto;html=1;startArrow=classic;startFill=1;strokeWidth=2;fontColor=#33FF33;fontFamily=Roboto;fontSource=https%3A%2F%2Ffonts.googleapis.com%2Fcss%3Ffamily%3DRoboto;fontSize=12;" parent="iMye_LXfVpJSYTO0qSQB-12" source="cK_maNlCVZVQSUSzoBmn-13" target="cK_maNlCVZVQSUSzoBmn-5" edge="1"><mxGeometry relative="1" as="geometry"><mxPoint x="-315" y="419" as="sourcePoint"/><mxPoint x="-217.5" y="510" as="targetPoint"/></mxGeometry></mxCell><mxCell id="IUe7kWGl7sLAVE5NO57p-3" style="edgeStyle=orthogonalEdgeStyle;rounded=0;orthogonalLoop=1;jettySize=auto;html=1;startArrow=classic;startFill=1;strokeWidth=2;fontColor=#33FF33;fontFamily=Roboto;fontSource=https%3A%2F%2Ffonts.googleapis.com%2Fcss%3Ffamily%3DRoboto;fontSize=12;" parent="iMye_LXfVpJSYTO0qSQB-12" source="cK_maNlCVZVQSUSzoBmn-12" target="cK_maNlCVZVQSUSzoBmn-13" edge="1"><mxGeometry relative="1" as="geometry"><mxPoint x="-370" y="419" as="sourcePoint"/><mxPoint x="-462.5" y="510" as="targetPoint"/></mxGeometry></mxCell><mxCell id="1" value="sandbox" parent="0"/><mxCell id="cK_maNlCVZVQSUSzoBmn-1" value="" style="pointerEvents=1;shadow=0;dashed=0;html=1;strokeColor=none;labelPosition=center;verticalLabelPosition=bottom;verticalAlign=top;outlineConnect=0;align=center;shape=mxgraph.office.devices.workstation;fillColor=#505050;fontFamily=Roboto;fontSource=https%3A%2F%2Ffonts.googleapis.com%2Fcss%3Ffamily%3DRoboto;fontSize=12;" parent="1" vertex="1"><mxGeometry x="-499" y="660" width="53" height="56" as="geometry"/></mxCell><mxCell id="cK_maNlCVZVQSUSzoBmn-2" value="" style="pointerEvents=1;shadow=0;dashed=0;html=1;strokeColor=none;labelPosition=center;verticalLabelPosition=bottom;verticalAlign=top;outlineConnect=0;align=center;shape=mxgraph.office.devices.workstation;fillColor=#505050;fontFamily=Roboto;fontSource=https%3A%2F%2Ffonts.googleapis.com%2Fcss%3Ffamily%3DRoboto;fontSize=12;" parent="1" vertex="1"><mxGeometry x="-254" y="660" width="53" height="56" as="geometry"/></mxCell><mxCell id="cK_maNlCVZVQSUSzoBmn-3" value="accessible_by_user=&lt;b style=&quot;font-size: 12px;&quot;&gt;True&lt;/b&gt;" style="pointerEvents=1;shadow=0;dashed=0;html=1;strokeColor=none;labelPosition=left;verticalLabelPosition=bottom;verticalAlign=top;outlineConnect=0;align=right;shape=mxgraph.office.devices.switch;spacingLeft=0;spacingBottom=0;spacingTop=0;spacing=0;spacingRight=-15;fontSize=12;labelBackgroundColor=#E6E6E6;fillColor=#505050;fontFamily=Roboto;fontSource=https%3A%2F%2Ffonts.googleapis.com%2Fcss%3Ffamily%3DRoboto;" parent="1" vertex="1"><mxGeometry x="-500" y="579" width="55" height="18" as="geometry"/></mxCell><mxCell id="cK_maNlCVZVQSUSzoBmn-5" value="" style="pointerEvents=1;shadow=0;dashed=0;html=1;strokeColor=none;labelPosition=center;verticalLabelPosition=bottom;verticalAlign=top;outlineConnect=0;align=center;shape=mxgraph.office.devices.router;fillColor=#505050;fontFamily=Roboto;fontSource=https%3A%2F%2Ffonts.googleapis.com%2Fcss%3Ffamily%3DRoboto;fontSize=12;" parent="1" vertex="1"><mxGeometry x="-500" y="462" width="55" height="56" as="geometry"/></mxCell><mxCell id="cK_maNlCVZVQSUSzoBmn-6" value="" style="pointerEvents=1;shadow=0;dashed=0;html=1;strokeColor=none;labelPosition=center;verticalLabelPosition=bottom;verticalAlign=top;outlineConnect=0;align=center;shape=mxgraph.office.devices.router;fillColor=#505050;fontFamily=Roboto;fontSource=https%3A%2F%2Ffonts.googleapis.com%2Fcss%3Ffamily%3DRoboto;fontSize=12;" parent="1" vertex="1"><mxGeometry x="-255" y="462" width="55" height="56" as="geometry"/></mxCell><mxCell id="cK_maNlCVZVQSUSzoBmn-10" value="man-network" style="pointerEvents=1;shadow=0;dashed=0;html=1;strokeColor=none;labelPosition=right;verticalLabelPosition=middle;verticalAlign=middle;outlineConnect=0;align=left;shape=mxgraph.office.devices.switch;spacingRight=0;spacingLeft=5;labelBackgroundColor=none;labelBorderColor=none;fillColor=#505050;fontFamily=Roboto;fontSource=https%3A%2F%2Ffonts.googleapis.com%2Fcss%3Ffamily%3DRoboto;fontSize=12;" parent="1" vertex="1"><mxGeometry x="-150" y="390" width="55" height="18" as="geometry"/></mxCell><mxCell id="cK_maNlCVZVQSUSzoBmn-12" value="MAN" style="pointerEvents=1;shadow=0;dashed=0;html=1;strokeColor=none;labelPosition=left;verticalLabelPosition=bottom;verticalAlign=top;outlineConnect=0;align=right;shape=mxgraph.office.devices.ip_gateway;fillColor=#505050;fontFamily=Roboto;fontSource=https%3A%2F%2Ffonts.googleapis.com%2Fcss%3Ffamily%3DRoboto;fontSize=12;" parent="1" vertex="1"><mxGeometry x="-382" y="280" width="59" height="40" as="geometry"/></mxCell><mxCell id="cK_maNlCVZVQSUSzoBmn-13" value="" style="pointerEvents=1;shadow=0;dashed=0;html=1;strokeColor=none;labelPosition=center;verticalLabelPosition=bottom;verticalAlign=top;outlineConnect=0;align=center;shape=mxgraph.office.devices.switch;fillColor=#505050;fontFamily=Roboto;fontSource=https%3A%2F%2Ffonts.googleapis.com%2Fcss%3Ffamily%3DRoboto;fontSize=12;" parent="1" vertex="1"><mxGeometry x="-380" y="400" width="55" height="18" as="geometry"/></mxCell><mxCell id="cK_maNlCVZVQSUSzoBmn-38" value="&lt;div style=&quot;font-size: 12px;&quot;&gt;kypo-base-network&lt;/div&gt;" style="pointerEvents=1;shadow=0;dashed=0;html=1;strokeColor=none;fillColor=#505050;labelPosition=center;verticalLabelPosition=top;verticalAlign=bottom;outlineConnect=0;align=center;shape=mxgraph.office.devices.switch;fontColor=#000000;spacingLeft=0;fontFamily=Roboto;fontSource=https%3A%2F%2Ffonts.googleapis.com%2Fcss%3Ffamily%3DRoboto;fontSize=12;" parent="1" vertex="1"><mxGeometry x="-381" y="190" width="55" height="18" as="geometry"/></mxCell><mxCell id="cK_maNlCVZVQSUSzoBmn-40" value="KYPO Head" style="pointerEvents=1;shadow=0;dashed=0;html=1;strokeColor=none;fillColor=#505050;labelPosition=left;verticalLabelPosition=middle;verticalAlign=middle;outlineConnect=0;align=right;shape=mxgraph.office.servers.server_generic;fontColor=#000000;spacingLeft=0;spacingRight=3;fontFamily=Roboto;fontSource=https%3A%2F%2Ffonts.googleapis.com%2Fcss%3Ffamily%3DRoboto;fontSize=12;" parent="1" vertex="1"><mxGeometry x="-446" y="90" width="27" height="52" as="geometry"/></mxCell><mxCell id="cK_maNlCVZVQSUSzoBmn-36" style="edgeStyle=orthogonalEdgeStyle;rounded=0;orthogonalLoop=1;jettySize=auto;html=1;startArrow=classic;startFill=1;endArrow=classic;endFill=1;strokeWidth=2;fontColor=#33FF33;fontFamily=Roboto;fontSource=https%3A%2F%2Ffonts.googleapis.com%2Fcss%3Ffamily%3DRoboto;fontSize=12;" parent="1" source="cK_maNlCVZVQSUSzoBmn-2" target="cK_maNlCVZVQSUSzoBmn-10" edge="1"><mxGeometry relative="1" as="geometry"><Array as="points"><mxPoint x="-110" y="690"/></Array></mxGeometry></mxCell><mxCell id="cK_maNlCVZVQSUSzoBmn-26" style="edgeStyle=orthogonalEdgeStyle;rounded=0;orthogonalLoop=1;jettySize=auto;html=1;startArrow=classic;startFill=1;strokeWidth=2;fontColor=#33FF33;fontFamily=Roboto;fontSource=https%3A%2F%2Ffonts.googleapis.com%2Fcss%3Ffamily%3DRoboto;fontSize=12;" parent="1" source="cK_maNlCVZVQSUSzoBmn-3" target="cK_maNlCVZVQSUSzoBmn-1" edge="1"><mxGeometry relative="1" as="geometry"/></mxCell><mxCell id="cK_maNlCVZVQSUSzoBmn-24" style="edgeStyle=orthogonalEdgeStyle;rounded=0;orthogonalLoop=1;jettySize=auto;html=1;startArrow=classic;startFill=1;strokeWidth=2;fontColor=#33FF33;fontFamily=Roboto;fontSource=https%3A%2F%2Ffonts.googleapis.com%2Fcss%3Ffamily%3DRoboto;fontSize=12;" parent="1" source="cK_maNlCVZVQSUSzoBmn-4" target="cK_maNlCVZVQSUSzoBmn-2" edge="1"><mxGeometry relative="1" as="geometry"/></mxCell><mxCell id="cK_maNlCVZVQSUSzoBmn-25" style="edgeStyle=orthogonalEdgeStyle;rounded=0;orthogonalLoop=1;jettySize=auto;html=1;startArrow=classic;startFill=1;strokeWidth=2;fontColor=#33FF33;fontFamily=Roboto;fontSource=https%3A%2F%2Ffonts.googleapis.com%2Fcss%3Ffamily%3DRoboto;fontSize=12;" parent="1" source="cK_maNlCVZVQSUSzoBmn-5" target="cK_maNlCVZVQSUSzoBmn-3" edge="1"><mxGeometry relative="1" as="geometry"/></mxCell><mxCell id="cK_maNlCVZVQSUSzoBmn-23" style="edgeStyle=orthogonalEdgeStyle;rounded=0;orthogonalLoop=1;jettySize=auto;html=1;startArrow=classic;startFill=1;strokeWidth=2;fontColor=#33FF33;fontFamily=Roboto;fontSource=https%3A%2F%2Ffonts.googleapis.com%2Fcss%3Ffamily%3DRoboto;fontSize=12;" parent="1" source="cK_maNlCVZVQSUSzoBmn-6" target="cK_maNlCVZVQSUSzoBmn-4" edge="1"><mxGeometry relative="1" as="geometry"/></mxCell><mxCell id="cK_maNlCVZVQSUSzoBmn-35" style="edgeStyle=orthogonalEdgeStyle;rounded=0;orthogonalLoop=1;jettySize=auto;html=1;startArrow=classic;startFill=1;endArrow=classic;endFill=1;strokeWidth=2;fontColor=#33FF33;fontFamily=Roboto;fontSource=https%3A%2F%2Ffonts.googleapis.com%2Fcss%3Ffamily%3DRoboto;fontSize=12;" parent="1" source="cK_maNlCVZVQSUSzoBmn-6" target="cK_maNlCVZVQSUSzoBmn-10" edge="1"><mxGeometry relative="1" as="geometry"><Array as="points"><mxPoint x="-122" y="490"/></Array><mxPoint x="-122" y="370" as="targetPoint"/></mxGeometry></mxCell><mxCell id="cK_maNlCVZVQSUSzoBmn-33" style="edgeStyle=orthogonalEdgeStyle;rounded=0;orthogonalLoop=1;jettySize=auto;html=1;startArrow=classic;startFill=1;endArrow=classic;endFill=1;strokeWidth=2;fontColor=#33FF33;fontFamily=Roboto;fontSource=https%3A%2F%2Ffonts.googleapis.com%2Fcss%3Ffamily%3DRoboto;fontSize=12;" parent="1" source="cK_maNlCVZVQSUSzoBmn-12" target="cK_maNlCVZVQSUSzoBmn-10" edge="1"><mxGeometry relative="1" as="geometry"><Array as="points"><mxPoint x="-110" y="300"/></Array></mxGeometry></mxCell><mxCell id="cK_maNlCVZVQSUSzoBmn-22" style="edgeStyle=orthogonalEdgeStyle;rounded=0;orthogonalLoop=1;jettySize=auto;html=1;startArrow=classic;startFill=1;strokeWidth=2;fontColor=#33FF33;fontFamily=Roboto;fontSource=https%3A%2F%2Ffonts.googleapis.com%2Fcss%3Ffamily%3DRoboto;fontSize=12;" parent="1" source="cK_maNlCVZVQSUSzoBmn-13" target="cK_maNlCVZVQSUSzoBmn-6" edge="1"><mxGeometry relative="1" as="geometry"/></mxCell><mxCell id="cK_maNlCVZVQSUSzoBmn-39" style="edgeStyle=orthogonalEdgeStyle;rounded=0;orthogonalLoop=1;jettySize=auto;html=1;startArrow=classic;startFill=1;endArrow=classic;endFill=1;strokeWidth=2;fontColor=#33FF33;fontFamily=Roboto;fontSource=https%3A%2F%2Ffonts.googleapis.com%2Fcss%3Ffamily%3DRoboto;fontSize=12;" parent="1" source="cK_maNlCVZVQSUSzoBmn-38" target="cK_maNlCVZVQSUSzoBmn-12" edge="1"><mxGeometry relative="1" as="geometry"><Array as="points"><mxPoint x="-352" y="230"/><mxPoint x="-352" y="230"/></Array></mxGeometry></mxCell><mxCell id="cK_maNlCVZVQSUSzoBmn-41" style="edgeStyle=orthogonalEdgeStyle;rounded=0;orthogonalLoop=1;jettySize=auto;html=1;startArrow=classic;startFill=1;endArrow=classic;endFill=1;strokeColor=#000000;strokeWidth=2;fontColor=#000000;fontFamily=Roboto;fontSource=https%3A%2F%2Ffonts.googleapis.com%2Fcss%3Ffamily%3DRoboto;fontSize=12;" parent="1" source="cK_maNlCVZVQSUSzoBmn-40" target="cK_maNlCVZVQSUSzoBmn-38" edge="1"><mxGeometry relative="1" as="geometry"><mxPoint x="-391" y="200" as="targetPoint"/><Array as="points"><mxPoint x="-431" y="200"/></Array></mxGeometry></mxCell><mxCell id="iMye_LXfVpJSYTO0qSQB-35" style="edgeStyle=orthogonalEdgeStyle;rounded=0;jumpSize=6;orthogonalLoop=1;jettySize=auto;html=1;startSize=6;endArrow=classic;endFill=1;endSize=6;strokeWidth=1;fontFamily=Roboto;fontSource=https%3A%2F%2Ffonts.googleapis.com%2Fcss%3Ffamily%3DRoboto;fontSize=12;" parent="1" source="iMye_LXfVpJSYTO0qSQB-1" edge="1"><mxGeometry relative="1" as="geometry"><mxPoint x="-270" y="688" as="targetPoint"/></mxGeometry></mxCell><mxCell id="iMye_LXfVpJSYTO0qSQB-36" style="edgeStyle=orthogonalEdgeStyle;rounded=0;jumpSize=6;orthogonalLoop=1;jettySize=auto;html=1;startSize=6;endArrow=classic;endFill=1;endSize=6;strokeWidth=1;fontFamily=Roboto;fontSource=https%3A%2F%2Ffonts.googleapis.com%2Fcss%3Ffamily%3DRoboto;fontSize=12;" parent="1" source="iMye_LXfVpJSYTO0qSQB-1" edge="1"><mxGeometry relative="1" as="geometry"><mxPoint x="-430" y="688" as="targetPoint"/></mxGeometry></mxCell><mxCell id="iMye_LXfVpJSYTO0qSQB-1" value="hosts" style="text;html=1;align=center;verticalAlign=middle;resizable=0;points=[];autosize=1;fontFamily=Roboto;fontSource=https%3A%2F%2Ffonts.googleapis.com%2Fcss%3Ffamily%3DRoboto;fontSize=12;" parent="1" vertex="1"><mxGeometry x="-377.5" y="678" width="50" height="20" as="geometry"/></mxCell><mxCell id="iMye_LXfVpJSYTO0qSQB-31" style="edgeStyle=orthogonalEdgeStyle;rounded=0;jumpSize=6;orthogonalLoop=1;jettySize=auto;html=1;startSize=6;endArrow=classic;endFill=1;endSize=6;strokeWidth=1;fontFamily=Roboto;fontSource=https%3A%2F%2Ffonts.googleapis.com%2Fcss%3Ffamily%3DRoboto;fontSize=12;" parent="1" source="iMye_LXfVpJSYTO0qSQB-2" edge="1"><mxGeometry relative="1" as="geometry"><mxPoint x="-270" y="630" as="targetPoint"/></mxGeometry></mxCell><mxCell id="iMye_LXfVpJSYTO0qSQB-32" style="edgeStyle=orthogonalEdgeStyle;rounded=0;jumpSize=6;orthogonalLoop=1;jettySize=auto;html=1;startSize=6;endArrow=classic;endFill=1;endSize=6;strokeWidth=1;fontFamily=Roboto;fontSource=https%3A%2F%2Ffonts.googleapis.com%2Fcss%3Ffamily%3DRoboto;fontSize=12;" parent="1" source="iMye_LXfVpJSYTO0qSQB-2" edge="1"><mxGeometry relative="1" as="geometry"><mxPoint x="-430" y="630" as="targetPoint"/></mxGeometry></mxCell><mxCell id="iMye_LXfVpJSYTO0qSQB-2" value="net_mappings" style="text;html=1;align=center;verticalAlign=middle;resizable=0;points=[];autosize=1;fontFamily=Roboto;fontSource=https%3A%2F%2Ffonts.googleapis.com%2Fcss%3Ffamily%3DRoboto;fontSize=12;" parent="1" vertex="1"><mxGeometry x="-397.5" y="620" width="90" height="20" as="geometry"/></mxCell><mxCell id="iMye_LXfVpJSYTO0qSQB-28" style="edgeStyle=orthogonalEdgeStyle;rounded=0;jumpSize=6;orthogonalLoop=1;jettySize=auto;html=1;startSize=6;endArrow=classic;endFill=1;endSize=6;strokeWidth=1;fontFamily=Roboto;fontSource=https%3A%2F%2Ffonts.googleapis.com%2Fcss%3Ffamily%3DRoboto;fontSize=12;" parent="1" source="iMye_LXfVpJSYTO0qSQB-3" edge="1"><mxGeometry relative="1" as="geometry"><mxPoint x="-272" y="550" as="targetPoint"/><Array as="points"><mxPoint x="-280" y="550"/><mxPoint x="-280" y="550"/></Array></mxGeometry></mxCell><mxCell id="iMye_LXfVpJSYTO0qSQB-29" style="edgeStyle=orthogonalEdgeStyle;rounded=0;jumpSize=6;orthogonalLoop=1;jettySize=auto;html=1;startSize=6;endArrow=classic;endFill=1;endSize=6;strokeWidth=1;fontFamily=Roboto;fontSource=https%3A%2F%2Ffonts.googleapis.com%2Fcss%3Ffamily%3DRoboto;fontSize=12;" parent="1" source="iMye_LXfVpJSYTO0qSQB-3" edge="1"><mxGeometry relative="1" as="geometry"><mxPoint x="-432" y="550" as="targetPoint"/><Array as="points"><mxPoint x="-412" y="550"/><mxPoint x="-412" y="550"/></Array></mxGeometry></mxCell><mxCell id="iMye_LXfVpJSYTO0qSQB-3" value="&lt;div style=&quot;font-size: 12px;&quot;&gt;router_mappings&lt;/div&gt;" style="text;html=1;align=center;verticalAlign=middle;resizable=0;points=[];autosize=1;fontFamily=Roboto;fontSource=https%3A%2F%2Ffonts.googleapis.com%2Fcss%3Ffamily%3DRoboto;fontSize=12;" parent="1" vertex="1"><mxGeometry x="-407.5" y="540" width="110" height="20" as="geometry"/></mxCell><mxCell id="iMye_LXfVpJSYTO0qSQB-33" style="edgeStyle=orthogonalEdgeStyle;rounded=0;jumpSize=6;orthogonalLoop=1;jettySize=auto;html=1;startSize=6;endArrow=classic;endFill=1;endSize=6;strokeWidth=1;fontFamily=Roboto;fontSource=https%3A%2F%2Ffonts.googleapis.com%2Fcss%3Ffamily%3DRoboto;fontSize=12;" parent="1" source="iMye_LXfVpJSYTO0qSQB-4" edge="1"><mxGeometry relative="1" as="geometry"><mxPoint x="-270" y="589" as="targetPoint"/></mxGeometry></mxCell><mxCell id="iMye_LXfVpJSYTO0qSQB-34" style="edgeStyle=orthogonalEdgeStyle;rounded=0;jumpSize=6;orthogonalLoop=1;jettySize=auto;html=1;startSize=6;endArrow=classic;endFill=1;endSize=6;strokeWidth=1;fontFamily=Roboto;fontSource=https%3A%2F%2Ffonts.googleapis.com%2Fcss%3Ffamily%3DRoboto;fontSize=12;" parent="1" source="iMye_LXfVpJSYTO0qSQB-4" edge="1"><mxGeometry relative="1" as="geometry"><mxPoint x="-430" y="589" as="targetPoint"/></mxGeometry></mxCell><mxCell id="iMye_LXfVpJSYTO0qSQB-4" value="networks" style="text;html=1;align=center;verticalAlign=middle;resizable=0;points=[];autosize=1;fontFamily=Roboto;fontSource=https%3A%2F%2Ffonts.googleapis.com%2Fcss%3Ffamily%3DRoboto;fontSize=12;" parent="1" vertex="1"><mxGeometry x="-382.5" y="579" width="60" height="20" as="geometry"/></mxCell><mxCell id="iMye_LXfVpJSYTO0qSQB-37" style="edgeStyle=orthogonalEdgeStyle;rounded=0;jumpSize=6;orthogonalLoop=1;jettySize=auto;html=1;startSize=6;endArrow=classic;endFill=1;endSize=6;strokeWidth=1;fontFamily=Roboto;fontSource=https%3A%2F%2Ffonts.googleapis.com%2Fcss%3Ffamily%3DRoboto;fontSize=12;" parent="1" source="iMye_LXfVpJSYTO0qSQB-5" edge="1"><mxGeometry relative="1" as="geometry"><mxPoint x="-270" y="490" as="targetPoint"/></mxGeometry></mxCell><mxCell id="iMye_LXfVpJSYTO0qSQB-38" style="edgeStyle=orthogonalEdgeStyle;rounded=0;jumpSize=6;orthogonalLoop=1;jettySize=auto;html=1;startSize=6;endArrow=classic;endFill=1;endSize=6;strokeWidth=1;fontFamily=Roboto;fontSource=https%3A%2F%2Ffonts.googleapis.com%2Fcss%3Ffamily%3DRoboto;fontSize=12;" parent="1" source="iMye_LXfVpJSYTO0qSQB-5" edge="1"><mxGeometry relative="1" as="geometry"><mxPoint x="-430" y="490" as="targetPoint"/></mxGeometry></mxCell><mxCell id="iMye_LXfVpJSYTO0qSQB-5" value="routers" style="text;html=1;align=center;verticalAlign=middle;resizable=0;points=[];autosize=1;fontFamily=Roboto;fontSource=https%3A%2F%2Ffonts.googleapis.com%2Fcss%3Ffamily%3DRoboto;fontSize=12;" parent="1" vertex="1"><mxGeometry x="-375" y="480" width="50" height="20" as="geometry"/></mxCell><mxCell id="iMye_LXfVpJSYTO0qSQB-6" value="wan" style="text;html=1;align=center;verticalAlign=middle;resizable=0;points=[];autosize=1;fontFamily=Roboto;fontSource=https%3A%2F%2Ffonts.googleapis.com%2Fcss%3Ffamily%3DRoboto;fontSize=12;" parent="1" vertex="1"><mxGeometry x="-372.5" y="418" width="40" height="20" as="geometry"/></mxCell><mxCell id="iMye_LXfVpJSYTO0qSQB-41" style="edgeStyle=orthogonalEdgeStyle;rounded=0;jumpSize=6;orthogonalLoop=1;jettySize=auto;html=1;exitX=0.5;exitY=1;exitDx=0;exitDy=0;startSize=6;endArrow=classic;endFill=1;endSize=6;strokeWidth=1;fontFamily=Roboto;fontSource=https%3A%2F%2Ffonts.googleapis.com%2Fcss%3Ffamily%3DRoboto;fontSize=12;" parent="1" edge="1"><mxGeometry relative="1" as="geometry"><mxPoint x="-315" y="170" as="sourcePoint"/><mxPoint x="-315" y="170" as="targetPoint"/></mxGeometry></mxCell><mxCell id="cK_maNlCVZVQSUSzoBmn-4" value="accessible_by_user=&lt;b style=&quot;font-size: 12px;&quot;&gt;False&lt;/b&gt;" style="pointerEvents=1;shadow=0;dashed=0;html=1;strokeColor=none;labelPosition=right;verticalLabelPosition=bottom;verticalAlign=top;outlineConnect=0;align=left;shape=mxgraph.office.devices.switch;spacing=0;spacingLeft=-15;fontSize=12;labelBackgroundColor=#E6E6E6;fillColor=#505050;fontFamily=Roboto;fontSource=https%3A%2F%2Ffonts.googleapis.com%2Fcss%3Ffamily%3DRoboto;" parent="1" vertex="1"><mxGeometry x="-255" y="579" width="55" height="18" as="geometry"/></mxCell><mxCell id="iMye_LXfVpJSYTO0qSQB-45" value="&lt;div style=&quot;font-size: 12px;&quot;&gt;KYPO Proxy&lt;/div&gt;" style="pointerEvents=1;shadow=0;dashed=0;html=1;strokeColor=none;fillColor=#505050;labelPosition=right;verticalLabelPosition=middle;verticalAlign=middle;outlineConnect=0;align=left;shape=mxgraph.office.servers.server_generic;labelBackgroundColor=none;fontSize=12;spacingLeft=2;fontFamily=Roboto;fontSource=https%3A%2F%2Ffonts.googleapis.com%2Fcss%3Ffamily%3DRoboto;" parent="1" vertex="1"><mxGeometry x="-293.5" y="90" width="27" height="52" as="geometry"/></mxCell><mxCell id="iMye_LXfVpJSYTO0qSQB-64" style="edgeStyle=orthogonalEdgeStyle;rounded=0;jumpSize=6;orthogonalLoop=1;jettySize=auto;html=1;labelBackgroundColor=none;startArrow=classic;startFill=1;startSize=6;endArrow=classic;endFill=1;endSize=6;strokeColor=#000000;strokeWidth=2;fontSize=12;fontColor=none;fontFamily=Roboto;fontSource=https%3A%2F%2Ffonts.googleapis.com%2Fcss%3Ffamily%3DRoboto;" parent="1" source="iMye_LXfVpJSYTO0qSQB-46" edge="1"><mxGeometry relative="1" as="geometry"><mxPoint x="-320" y="210" as="targetPoint"/><Array as="points"><mxPoint x="-240" y="210"/><mxPoint x="-240" y="210"/></Array></mxGeometry></mxCell><mxCell id="iMye_LXfVpJSYTO0qSQB-46" value="Internet" style="pointerEvents=1;shadow=0;dashed=0;html=1;strokeColor=none;fillColor=#505050;labelPosition=center;verticalLabelPosition=bottom;outlineConnect=0;verticalAlign=top;align=center;shape=mxgraph.office.clouds.cloud;labelBackgroundColor=none;fontSize=12;fontFamily=Roboto;fontSource=https%3A%2F%2Ffonts.googleapis.com%2Fcss%3Ffamily%3DRoboto;" parent="1" vertex="1"><mxGeometry x="-110" y="161.5" width="94" height="55" as="geometry"/></mxCell><mxCell id="iMye_LXfVpJSYTO0qSQB-48" style="edgeStyle=orthogonalEdgeStyle;rounded=0;orthogonalLoop=1;jettySize=auto;html=1;startArrow=classic;startFill=1;endArrow=classic;endFill=1;strokeColor=#000000;strokeWidth=2;fontColor=#000000;entryX=1.091;entryY=0.556;entryDx=0;entryDy=0;entryPerimeter=0;fontFamily=Roboto;fontSource=https%3A%2F%2Ffonts.googleapis.com%2Fcss%3Ffamily%3DRoboto;fontSize=12;" parent="1" source="iMye_LXfVpJSYTO0qSQB-45" target="cK_maNlCVZVQSUSzoBmn-38" edge="1"><mxGeometry relative="1" as="geometry"><mxPoint x="-344.78" y="100" as="sourcePoint"/><mxPoint x="-321" y="200" as="targetPoint"/><Array as="points"><mxPoint x="-281" y="200"/></Array></mxGeometry></mxCell><mxCell id="iMye_LXfVpJSYTO0qSQB-54" style="edgeStyle=orthogonalEdgeStyle;rounded=0;jumpSize=6;orthogonalLoop=1;jettySize=auto;html=1;startArrow=classic;startFill=1;startSize=6;endArrow=classic;endFill=1;endSize=6;strokeColor=#000000;strokeWidth=2;fontSize=12;labelBackgroundColor=none;fontFamily=Roboto;fontSource=https%3A%2F%2Ffonts.googleapis.com%2Fcss%3Ffamily%3DRoboto;" parent="1" source="iMye_LXfVpJSYTO0qSQB-53" target="iMye_LXfVpJSYTO0qSQB-45" edge="1"><mxGeometry relative="1" as="geometry"/></mxCell><mxCell id="iMye_LXfVpJSYTO0qSQB-58" value="&lt;div style=&quot;font-size: 12px;&quot;&gt;SSH&lt;/div&gt;" style="edgeLabel;html=1;align=center;verticalAlign=middle;resizable=0;points=[];fontSize=12;fontColor=none;labelBackgroundColor=#FFFFFF;fontFamily=Roboto;fontSource=https%3A%2F%2Ffonts.googleapis.com%2Fcss%3Ffamily%3DRoboto;" parent="iMye_LXfVpJSYTO0qSQB-54" vertex="1" connectable="0"><mxGeometry x="0.0456" y="-17" relative="1" as="geometry"><mxPoint x="17.97" y="-10.989999999999998" as="offset"/></mxGeometry></mxCell><mxCell id="iMye_LXfVpJSYTO0qSQB-55" style="edgeStyle=orthogonalEdgeStyle;rounded=0;jumpSize=6;orthogonalLoop=1;jettySize=auto;html=1;startArrow=classic;startFill=1;startSize=6;endArrow=classic;endFill=1;endSize=6;strokeColor=#000000;strokeWidth=2;fontSize=12;fontFamily=Roboto;fontSource=https%3A%2F%2Ffonts.googleapis.com%2Fcss%3Ffamily%3DRoboto;" parent="1" source="iMye_LXfVpJSYTO0qSQB-53" target="cK_maNlCVZVQSUSzoBmn-40" edge="1"><mxGeometry relative="1" as="geometry"/></mxCell><mxCell id="iMye_LXfVpJSYTO0qSQB-59" value="HTTPS" style="edgeLabel;html=1;align=center;verticalAlign=middle;resizable=0;points=[];fontSize=12;fontColor=none;labelBackgroundColor=#FFFFFF;fontFamily=Roboto;fontSource=https%3A%2F%2Ffonts.googleapis.com%2Fcss%3Ffamily%3DRoboto;" parent="iMye_LXfVpJSYTO0qSQB-55" vertex="1" connectable="0"><mxGeometry x="-0.2698" y="1" relative="1" as="geometry"><mxPoint x="-14.789999999999992" y="-1.509999999999998" as="offset"/></mxGeometry></mxCell><mxCell id="iMye_LXfVpJSYTO0qSQB-53" value="" style="pointerEvents=1;shadow=0;dashed=0;html=1;strokeColor=none;fillColor=#505050;labelPosition=center;verticalLabelPosition=bottom;verticalAlign=top;outlineConnect=0;align=center;shape=mxgraph.office.users.user;labelBackgroundColor=none;fontSize=12;fontFamily=Roboto;fontSource=https%3A%2F%2Ffonts.googleapis.com%2Fcss%3Ffamily%3DRoboto;" parent="1" vertex="1"><mxGeometry x="-369.5" width="32" height="35" as="geometry"/></mxCell><mxCell id="iMye_LXfVpJSYTO0qSQB-67" value="Topology Instance" style="text;html=1;align=left;verticalAlign=middle;resizable=0;points=[];autosize=1;fontSize=14;fontColor=none;fontFamily=Roboto;fontSource=https%3A%2F%2Ffonts.googleapis.com%2Fcss%3Ffamily%3DRoboto;" parent="1" vertex="1"><mxGeometry x="-650" y="250" width="130" height="20" as="geometry"/></mxCell><mxCell id="iMye_LXfVpJSYTO0qSQB-68" value="KYPO Base Infrastructure" style="text;html=1;align=left;verticalAlign=middle;resizable=0;points=[];autosize=1;fontSize=14;fontColor=none;fontFamily=Roboto;fontSource=https%3A%2F%2Ffonts.googleapis.com%2Fcss%3Ffamily%3DRoboto;" parent="1" vertex="1"><mxGeometry x="-650" y="60" width="170" height="20" as="geometry"/></mxCell></root></mxGraphModel></diagram></mxfile>